<?xml version="1.0" encoding="UTF-8" standalone="no"?><!-- Generator: Gravit.io --><svg xmlns="http://www.w3.org/2000/svg" xmlns:xlink="http://www.w3.org/1999/xlink" style="isolation:isolate" viewBox="0 0 1080 1080" width="1080pt" height="1080pt"><defs><clipPath id="_clipPath_gr1FrY1TxCxTkR2uqVCjsl2dkV8tI7oa"><rect width="1080" height="1080"/></clipPath></defs><g clip-path="url(#_clipPath_gr1FrY1TxCxTkR2uqVCjsl2dkV8tI7oa)"><rect width="1080" height="1080" style="fill:rgb(46,46,46)" fill-opacity="0"/><g><path d=" M 327.412 316.469 L 752.588 316.469 C 759.99 316.469 766 322.479 766 329.881 L 766 750.119 C 766 757.521 759.99 763.531 752.588 763.531 L 327.412 763.531 C 320.01 763.531 314 757.521 314 750.119 L 314 329.881 C 314 322.479 320.01 316.469 327.412 316.469 Z  M 347.299 340.468 L 732.701 340.468 C 737.106 340.468 740.683 344.044 740.683 348.449 L 740.683 731.551 C 740.683 735.956 737.106 739.532 732.701 739.532 L 347.299 739.532 C 342.894 739.532 339.317 735.956 339.317 731.551 L 339.317 348.449 C 339.317 344.044 342.894 340.468 347.299 340.468 Z " fill-rule="evenodd" fill="rgb(80,216,144)"/></g><path d=" M 454.022 428.507 C 462.294 428.507 468.922 421.829 468.922 413.557 C 468.922 405.285 462.294 398.608 454.022 398.608 C 445.75 398.608 439.072 405.285 439.072 413.557 C 439.072 421.829 445.75 428.507 454.022 428.507 Z  M 414.156 428.507 C 422.428 428.507 429.056 421.829 429.056 413.557 C 429.056 405.285 422.428 398.608 414.156 398.608 C 405.884 398.608 399.206 405.285 399.206 413.557 C 399.206 421.829 405.884 428.507 414.156 428.507 Z  M 414.156 438.473 C 402.545 438.473 379.273 444.304 379.273 455.915 L 379.273 468.373 L 449.039 468.373 L 449.039 455.915 C 449.039 444.304 425.767 438.473 414.156 438.473 Z  M 454.022 438.473 C 452.577 438.473 450.932 438.573 449.188 438.723 C 454.969 442.909 459.005 448.54 459.005 455.915 L 459.005 468.373 L 488.904 468.373 L 488.904 455.915 C 488.904 444.304 465.633 438.473 454.022 438.473 Z " fill="rgb(80,216,144)"/><path d=" M 327.88 758.68 L 533.44 758.68 C 537.06 758.68 540 755.741 540 752.12 L 540 546.56 C 540 542.94 537.06 540 533.44 540 L 327.88 540 C 324.259 540 321.32 542.94 321.32 546.56 L 321.32 752.12 C 321.32 755.741 324.259 758.68 327.88 758.68 Z  M 374.665 596.112 L 374.665 607.538 L 387.697 607.538 L 402.695 652.176 L 394.125 663.603 L 393.948 663.603 C 391.448 667.178 391.106 671.835 393.056 675.738 C 395.071 679.482 398.98 681.815 403.232 681.811 L 477.504 681.811 L 477.504 670.384 L 403.232 670.384 C 403.255 670.361 403.163 670.293 403.232 670.207 L 411.802 658.958 L 465.541 658.958 C 467.82 658.958 470.14 657.844 470.722 655.564 L 488.394 615.571 C 489.195 613.812 489.046 611.766 487.999 610.141 C 486.952 608.516 485.15 607.536 483.217 607.538 L 399.661 607.538 L 397.159 600.037 L 395.919 596.112 L 374.665 596.112 L 374.665 596.112 Z  M 403.232 687.524 C 396.921 687.524 391.805 692.64 391.805 698.951 C 391.805 705.261 396.921 710.377 403.232 710.377 C 409.542 710.377 414.658 705.261 414.658 698.951 C 414.658 692.64 409.542 687.524 403.232 687.524 L 403.232 687.524 Z  M 466.078 687.524 C 459.767 687.524 454.651 692.64 454.651 698.951 C 454.651 705.261 459.767 710.377 466.078 710.377 C 472.388 710.377 477.504 705.261 477.504 698.951 C 477.504 692.64 472.388 687.524 466.078 687.524 L 466.078 687.524 Z " fill-rule="evenodd" fill="rgb(80,216,144)"/><path d=" M 646.086 639.505 C 630.212 635.379 625.107 631.114 625.107 624.47 C 625.107 616.848 632.17 611.533 643.988 611.533 C 656.436 611.533 661.051 617.477 661.471 626.219 L 676.925 626.219 C 676.436 614.19 669.093 603.141 654.478 599.575 L 654.478 584.26 L 633.498 584.26 L 633.498 599.365 C 619.932 602.302 609.023 611.114 609.023 624.61 C 609.023 640.764 622.379 648.806 641.89 653.492 C 659.373 657.687 662.869 663.841 662.869 670.345 C 662.869 675.17 659.443 682.862 643.988 682.862 C 629.582 682.862 623.918 676.429 623.149 668.177 L 607.764 668.177 C 608.603 683.492 620.072 692.093 633.498 694.96 L 633.498 710.135 L 654.478 710.135 L 654.478 695.1 C 668.114 692.513 678.953 684.611 678.953 670.275 C 678.953 650.415 661.96 643.631 646.086 639.505 Z " fill="rgb(80,216,144)"/><path d=" M 582.956 466.058 L 582.956 490.956 C 582.956 492.471 584.186 493.733 585.733 493.733 L 604.982 493.733 C 606.496 493.733 607.759 492.502 607.759 490.956 L 607.759 447.156 L 593.779 461.136 C 590.813 464.07 587.026 465.774 582.956 466.058 L 582.956 466.058 L 582.956 466.058 L 582.956 466.058 L 582.956 466.058 Z  M 617.352 446.841 L 617.352 490.956 C 617.352 492.471 618.582 493.733 620.129 493.733 L 639.378 493.733 C 640.892 493.733 642.154 492.502 642.154 490.956 L 642.154 464.986 C 637.768 464.891 633.666 463.155 630.573 460.063 L 617.352 446.841 L 617.352 446.841 L 617.352 446.841 L 617.352 446.841 Z  M 651.747 462.24 L 651.747 490.956 C 651.747 492.471 652.978 493.733 654.524 493.733 L 673.773 493.733 C 675.288 493.733 676.55 492.502 676.55 490.956 L 676.55 437.974 L 654.493 460.031 C 653.641 460.883 652.726 461.609 651.747 462.24 L 651.747 462.24 L 651.747 462.24 Z  M 709.084 405.408 L 686.143 428.349 L 686.143 490.956 C 686.143 492.471 687.374 493.733 688.92 493.733 L 708.169 493.733 C 709.684 493.733 710.946 492.502 710.946 490.956 L 710.946 407.144 C 710.315 406.607 709.842 406.134 709.495 405.818 L 709.084 405.408 L 709.084 405.408 Z  M 752.12 321.32 L 546.56 321.32 C 542.94 321.32 540 324.259 540 327.88 L 540 533.44 C 540 537.06 542.94 540 546.56 540 L 752.12 540 C 755.741 540 758.68 537.06 758.68 533.44 L 758.68 327.88 C 758.68 324.259 755.741 321.32 752.12 321.32 L 752.12 321.32 L 752.12 321.32 L 752.12 321.32 L 752.12 321.32 Z  M 724.831 364.764 C 723.916 363.786 722.527 363.281 720.76 363.281 C 720.602 363.281 720.413 363.281 720.255 363.281 C 711.293 363.691 702.363 364.133 693.401 364.543 C 692.202 364.606 690.561 364.669 689.267 365.963 C 688.857 366.374 688.542 366.847 688.289 367.415 C 686.964 370.286 688.826 372.148 689.709 373.032 L 691.95 375.304 C 693.496 376.882 695.074 378.459 696.651 380.006 L 642.502 434.187 L 618.172 409.857 C 616.72 408.406 614.764 407.585 612.681 407.585 C 610.599 407.585 608.674 408.406 607.222 409.857 L 574.814 442.234 C 571.785 445.263 571.785 450.154 574.814 453.184 L 576.266 454.635 C 577.717 456.087 579.674 456.907 581.757 456.907 C 583.839 456.907 585.764 456.087 587.216 454.635 L 612.681 429.17 L 637.011 453.499 C 638.462 454.951 640.419 455.771 642.502 455.771 C 644.584 455.771 646.509 454.951 647.992 453.499 L 709.084 392.407 L 715.995 399.286 C 716.816 400.107 717.952 401.243 719.687 401.243 C 720.413 401.243 721.139 401.053 721.896 400.643 C 722.401 400.359 722.843 400.044 723.221 399.665 C 724.578 398.308 724.831 396.572 724.894 395.216 C 725.146 389.409 725.43 383.603 725.714 377.765 L 726.125 369.024 C 726.219 367.194 725.809 365.774 724.831 364.764 Z " fill-rule="evenodd" fill="rgb(80,216,144)"/></g></svg>